<svg width="512" height="512" viewBox="0 0 512 512" fill="none" xmlns="http://www.w3.org/2000/svg">
<rect width="512" height="512" rx="100" fill="#06C755"/>
<path d="M256.402 110C172.164 110 103.886 169.596 103.886 243.15C103.886 288.586 130.654 328.63 171.796 352.502C178.618 355.882 181.442 360.716 179.914 369.34L175.766 397.04C175.766 397.04 173.344 410.662 193.308 406.87L283.432 355.486C286.094 353.958 289.474 353.078 292.854 352.59C298.662 353.012 304.534 353.25 310.454 353.25C394.692 353.25 462.97 293.654 462.97 220.1C462.97 146.546 394.692 87 310.454 87L256.402 110Z" fill="white"/>
<path d="M195.836 215.864H177.308V270.5H195.836V226.744H217.436V215.864H195.836ZM229.284 215.864H247.812V270.5H229.284V215.864ZM260.67 215.864H279.198V232.076L299.886 215.864H322.998L297.83 234.332L323.702 270.5H300.782L279.198 238.484V270.5H260.67V215.864ZM336.806 215.864H382.166V226.744H355.334V237.076H381.142V247.956H355.334V259.62H382.166V270.5H336.806V215.864Z" fill="#06C755"/>
</svg>
